<?xml version="1.0" encoding="UTF-8"?>
<svg width="15mm" height="15mm" version="1.1" viewBox="0 0 15 15" xmlns="http://www.w3.org/2000/svg" xmlns:cc="http://creativecommons.org/ns#" xmlns:dc="http://purl.org/dc/elements/1.1/" xmlns:rdf="http://www.w3.org/1999/02/22-rdf-syntax-ns#">
 <metadata>
  <rdf:RDF>
   <cc:Work rdf:about="">
    <dc:format>image/svg+xml</dc:format>
    <dc:type rdf:resource="http://purl.org/dc/dcmitype/StillImage"/>
    <dc:title/>
   </cc:Work>
  </rdf:RDF>
 </metadata>
 <g transform="translate(92.359 -89.322)" display="none">
  <g fill="#856c14">
   <path d="m-98.292 61.154-9.2947 4.7208 0.9983 0.96278-8.2817 6.7981 10.941-6.0565-1.0839-0.86712z"/>
   <path d="m-98.294 69.041-4.6589 3.6485 0.66158 0.42674-3.867 4.6944 5.4293-4.573-0.69875-0.36408z" display="inline"/>
  </g>
  <path d="m-111.16 64.081c-0.92546 1.3675-0.0104 4.5172 0.74672 5.1403-1.1959 1.3368 2.1418 5.6953 3.8272 5.6978h2e-3c1.6853-0.0026 5.0231-4.361 3.8272-5.6978 0.75707-0.6231 1.6717-3.7728 0.7462-5.1403-1.6578 0.78364-3.4318 2.9156-3.4318 2.9156-0.76154 7.94e-4 -1.5231 2.65e-4 -2.2846 0 0 0-1.7746-2.1319-3.4324-2.9156zm2.5058 5.5893c0.88156-0.02289 0.99012 0.91674 0.99012 0.91674s-1.1507 0.25777-1.4175-0.84232c0.15941-0.04809 0.30143-0.07115 0.42737-0.07441zm4.1377 0c0.12594 0.0033 0.26796 0.02633 0.42736 0.07441-0.2668 1.1001-1.4175 0.84232-1.4175 0.84232s0.10856-0.93962 0.99012-0.91674z" fill="#133257" stroke="#131313" stroke-width=".26458px"/>
 </g>
 <g transform="translate(92.359 -89.322)">
  <rect x="-71.197" y="67.344" width="17.288" height="16.735" opacity="0" stroke-width=".51649"/>
  <g transform="translate(44.028 6.2287)" fill="#856c14">
   <path d="m-98.292 61.154-9.2947 4.7208 0.9983 0.96278-8.2817 6.7981 10.941-6.0565-1.0839-0.86712z"/>
   <path d="m-98.294 69.041-4.6589 3.6485 0.66158 0.42674-3.867 4.6944 5.4293-4.573-0.69875-0.36408z"/>
  </g>
  <path d="m-67.128 70.31c-0.92546 1.3675-0.0104 4.5172 0.74672 5.1403-1.1959 1.3368 2.1418 5.6953 3.8272 5.6978h2e-3c1.6853-3e-3 5.0231-4.361 3.8272-5.6978 0.75707-0.6231 1.6717-3.7728 0.7462-5.1403-1.6578 0.78364-3.4318 2.9156-3.4318 2.9156-0.76154 7.94e-4 -1.5231 2.65e-4 -2.2846 0 0 0-1.7746-2.1319-3.4324-2.9156zm2.5058 5.5893c0.88156-0.02289 0.99012 0.91674 0.99012 0.91674s-1.1507 0.25777-1.4175-0.84232c0.15941-0.04809 0.30143-0.07115 0.42737-0.07441zm4.1377 0c0.12594 0.0033 0.26796 0.02633 0.42736 0.07441-0.2668 1.1001-1.4175 0.84232-1.4175 0.84232s0.10856-0.93962 0.99012-0.91674z" fill="#f7f7f7" stroke="#46658a" stroke-width=".26458px"/>
  <rect x="-93.733" y="67.506" width="17.288" height="16.735" opacity="0" stroke-width=".51649"/>
  <g transform="translate(21.492 6.3913)" fill="#856c14">
   <path d="m-98.292 61.154-9.2947 4.7208 0.9983 0.96278-8.2817 6.7981 10.941-6.0565-1.0839-0.86712z"/>
   <path d="m-98.294 69.041-4.6589 3.6485 0.66158 0.42674-3.867 4.6944 5.4293-4.573-0.69875-0.36408z"/>
  </g>
  <path d="m-89.664 70.473c-0.92546 1.3675-0.0104 4.5172 0.74672 5.1403-1.1959 1.3368 2.1418 5.6953 3.8272 5.6978h2e-3c1.6853-0.0026 5.0231-4.361 3.8272-5.6978 0.75707-0.6231 1.6717-3.7728 0.7462-5.1403-1.6578 0.78364-3.4318 2.9156-3.4318 2.9156-0.76154 7.94e-4 -1.5231 2.65e-4 -2.2846 0 0 0-1.7746-2.1319-3.4324-2.9156zm2.5058 5.5893c0.88156-0.02289 0.99012 0.91674 0.99012 0.91674s-1.1507 0.25777-1.4175-0.84232c0.15941-0.04809 0.30143-0.07115 0.42737-0.07441zm4.1377 0c0.12594 0.0033 0.26796 0.02633 0.42736 0.07441-0.2668 1.1001-1.4175 0.84232-1.4175 0.84232s0.10856-0.93962 0.99012-0.91674z" fill="#133257" stroke="#131313" stroke-width=".26458px"/>
  <rect x="-47.976" y="67.421" width="17.288" height="16.735" opacity="0" stroke-width=".51649"/>
  <g transform="translate(67.249 6.3058)" fill="#856c14">
   <path d="m-98.292 61.154-9.2947 4.7208 0.9983 0.96278-8.2817 6.7981 10.941-6.0565-1.0839-0.86712z"/>
   <path d="m-98.294 69.041-4.6589 3.6485 0.66158 0.42674-3.867 4.6944 5.4293-4.573-0.69875-0.36408z"/>
  </g>
  <path d="m-43.907 70.387c-0.92546 1.3675-0.0104 4.5172 0.74672 5.1403-1.1959 1.3368 2.1418 5.6953 3.8272 5.6978h2e-3c1.6853-3e-3 5.0231-4.3611 3.8272-5.6978 0.75707-0.6231 1.6717-3.7728 0.7462-5.1403-1.6578 0.78364-3.4318 2.9156-3.4318 2.9156-0.76154 7.94e-4 -1.5231 2.65e-4 -2.2846 0 0 0-1.7746-2.1319-3.4324-2.9156zm2.5058 5.5893c0.88156-0.02289 0.99012 0.91674 0.99012 0.91674s-1.1507 0.25777-1.4175-0.84232c0.15941-0.04809 0.30143-0.07115 0.42737-0.07441zm4.1377 0c0.12594 0.0033 0.26796 0.02633 0.42736 0.07441-0.2668 1.1001-1.4175 0.84232-1.4175 0.84232s0.10856-0.93962 0.99012-0.91674z" fill="#131313" stroke="#131313" stroke-width=".26458px"/>
  <rect x="-92.359" y="89.322" width="15" height="15" display="none" opacity="0" stroke-width=".22563"/>
  <path d="m-89.434 91.421c-0.92546 1.3675-0.0104 4.5172 0.74672 5.1403-1.1959 1.3368 2.1418 5.6953 3.8272 5.6978h2e-3c1.6853-3e-3 5.0231-4.361 3.8272-5.6978 0.75707-0.6231 1.6717-3.7728 0.7462-5.1403-1.6578 0.78364-3.4318 2.9156-3.4318 2.9156-0.76154 7.94e-4 -1.5231 2.64e-4 -2.2846 0 0 0-1.7746-2.1319-3.4324-2.9156zm2.5058 5.5893c0.88156-0.02289 0.99012 0.91674 0.99012 0.91674s-1.1507 0.25777-1.4175-0.84233c0.15941-0.04809 0.30143-0.07115 0.42737-0.07441zm4.1377 0c0.12594 0.0033 0.26796 0.02633 0.42736 0.07441-0.2668 1.1001-1.4175 0.84232-1.4175 0.84232s0.10856-0.93962 0.99012-0.91674z" fill="#133257" stroke="#131313" stroke-width=".26458px"/>
  <path d="m-77.523 93.258-4.0668 2.9361 0.55852 0.36686-3.4089 3.8191 4.7456-3.688-0.59164-0.3156z" fill="#856c14"/>
 </g>
 <g transform="translate(92.359 -89.322)" opacity=".995">
  <rect x="-69.792" y="89.586" width="15" height="14.473" opacity="0" stroke-width=".22163"/>
  <path d="m-66.867 91.421c-0.92546 1.3675-0.0104 4.5172 0.74672 5.1403-1.1959 1.3368 2.1418 5.6953 3.8272 5.6978h2e-3c1.6853-3e-3 5.0231-4.361 3.8272-5.6978 0.75707-0.6231 1.6717-3.7728 0.7462-5.1403-1.6578 0.78364-3.4318 2.9156-3.4318 2.9156-0.76154 7.94e-4 -1.5231 2.64e-4 -2.2846 0 0 0-1.7746-2.1319-3.4324-2.9156zm2.5058 5.5893c0.88156-0.02289 0.99012 0.91674 0.99012 0.91674s-1.1507 0.25777-1.4175-0.84233c0.15941-0.04809 0.30143-0.07115 0.42737-0.07441zm4.1377 0c0.12594 0.0033 0.26796 0.02633 0.42736 0.07441-0.2668 1.1001-1.4175 0.84232-1.4175 0.84232s0.10856-0.93962 0.99012-0.91674z" fill="#f7f7f7" stroke="#46658a" stroke-width=".26458px"/>
  <path d="m-54.955 93.258-4.0668 2.9361 0.55852 0.36686-3.4089 3.8191 4.7456-3.688-0.59164-0.3156z" fill="#856c14" opacity="1"/>
 </g>
 <g transform="translate(92.359 -89.322)">
  <rect x="-46.607" y="89.322" width="15" height="15" opacity="0" stroke-width=".22563"/>
  <path d="m-43.681 91.421c-0.92546 1.3675-0.0104 4.5172 0.74672 5.1403-1.1959 1.3368 2.1418 5.6953 3.8272 5.6978h2e-3c1.6853-3e-3 5.0231-4.361 3.8272-5.6978 0.75707-0.6231 1.6717-3.7728 0.7462-5.1403-1.6578 0.78364-3.4318 2.9156-3.4318 2.9156-0.76154 7.94e-4 -1.5231 2.64e-4 -2.2846 0 0 0-1.7746-2.1319-3.4324-2.9156zm2.5058 5.5893c0.88156-0.02289 0.99012 0.91674 0.99012 0.91674s-1.1507 0.25777-1.4175-0.84233c0.15941-0.04809 0.30143-0.07115 0.42737-0.07441zm4.1377 0c0.12594 0.0033 0.26796 0.02633 0.42736 0.07441-0.2668 1.1001-1.4175 0.84232-1.4175 0.84232s0.10856-0.93962 0.99012-0.91674z" fill="#131313" stroke="#131313" stroke-width=".26458px"/>
  <path d="m-31.77 93.258-4.0668 2.9361 0.55852 0.36686-3.4089 3.8191 4.7456-3.688-0.59164-0.3156z" fill="#856c14"/>
  <text x="-98.877785" y="13.32286" font-family="'Courier New'" font-size="3.8806px" stroke-width=".26458" style="line-height:1.25" xml:space="preserve"><tspan x="-98.877785" y="13.32286">Export SVG Instructions:</tspan><tspan x="-98.877785" y="18.986784">Select logo with boundary rectangle,</tspan><tspan x="-98.877785" y="24.650707">Reduce page size to fit selection,</tspan><tspan x="-98.877785" y="30.314632">hide boundary rectangle</tspan><tspan x="-98.877785" y="35.978558">Save as copy -&gt; Optimized SVG etc...</tspan></text>
 </g>
</svg>
